<?xml version="1.0" standalone="no"?>
<!DOCTYPE svg PUBLIC "-//W3C//DTD SVG 20010904//EN"
 "http://www.w3.org/TR/2001/REC-SVG-20010904/DTD/svg10.dtd">
<svg version="1.0" xmlns="http://www.w3.org/2000/svg"
 width="12" height="12" viewBox="0 0 512.000000 512.000000"
 preserveAspectRatio="xMidYMid meet">

<g transform="translate(0.000000,512.000000) scale(0.100000,-0.100000)"
fill="#f6003c" stroke="none">
<path d="M2360 4826 c-118 -33 -143 -66 -112 -149 28 -73 52 -205 52 -282 l0
-64 -57 -11 c-141 -28 -310 -80 -435 -134 -32 -14 -140 198 -192 378 -15 49
-26 101 -26 117 0 34 -32 59 -75 59 -116 0 -336 -124 -404 -227 -48 -73 -44
-88 55 -184 95 -93 169 -186 234 -297 l43 -73 -115 -112 c-63 -62 -140 -147
-172 -189 -32 -43 -62 -78 -66 -78 -17 0 -140 98 -214 171 -43 43 -88 80 -99
83 -83 21 -248 -193 -279 -363 -18 -93 -11 -101 109 -129 87 -21 230 -74 285
-107 17 -10 16 -14 -4 -65 -37 -97 -77 -261 -90 -368 l-12 -105 -135 6 c-166
6 -302 33 -413 82 -25 10 -83 -50 -97 -100 -41 -142 -35 -316 13 -421 35 -77
54 -83 158 -50 106 33 208 52 329 61 157 12 150 17 188 -137 26 -105 75 -249
117 -345 11 -25 -222 -118 -324 -129 -31 -4 -63 -11 -69 -17 -18 -13 -16 -97
3 -154 37 -110 149 -265 217 -300 16 -8 40 -12 52 -9 13 3 61 43 107 89 46 45
116 104 156 132 l72 49 100 -106 c55 -58 142 -140 195 -183 52 -43 95 -82 95
-87 0 -15 -74 -137 -126 -208 -26 -36 -87 -106 -137 -157 -100 -103 -101 -106
-47 -181 94 -130 392 -265 462 -209 9 6 21 43 28 82 19 104 66 238 121 345 74
142 60 134 160 100 103 -34 249 -66 347 -76 l73 -7 -7 -71 c-9 -102 -32 -212
-58 -277 -26 -66 -21 -90 24 -118 51 -31 139 -44 262 -39 95 3 122 8 170 30
69 32 83 54 63 96 -28 54 -56 186 -62 284 l-6 97 39 6 c119 20 331 85 456 139
32 14 140 -198 192 -378 15 -49 26 -101 26 -117 0 -101 200 -63 386 74 62 46
124 125 124 160 0 12 -42 64 -103 126 -104 106 -181 210 -231 310 l-27 53 123
127 c68 69 145 154 172 188 26 35 51 63 56 63 18 0 168 -120 228 -183 34 -36
71 -69 82 -72 72 -23 210 137 270 311 23 65 26 137 8 151 -7 6 -49 18 -93 28
-80 17 -265 85 -297 109 -17 12 -15 20 17 115 39 118 71 255 81 355 l7 69 136
-6 c145 -6 255 -24 361 -61 78 -27 98 -21 127 32 36 65 48 139 47 282 0 115
-4 144 -23 193 -13 32 -33 65 -47 73 -22 15 -27 15 -56 1 -54 -25 -138 -47
-238 -62 -100 -16 -277 -20 -296 -7 -6 4 -26 65 -44 137 -26 104 -73 244 -117
343 -12 28 261 132 347 132 48 0 60 15 60 72 0 90 -70 236 -159 331 -77 83
-132 96 -162 41 -20 -38 -142 -149 -222 -202 l-68 -45 -105 111 c-58 62 -146
144 -195 183 -49 39 -89 75 -89 80 0 15 98 174 141 230 23 30 77 91 121 135
43 45 78 90 78 101 0 34 -57 110 -117 157 -138 109 -332 176 -384 134 -9 -7
-22 -44 -29 -83 -20 -107 -65 -237 -120 -344 -74 -145 -60 -136 -162 -101 -98
33 -248 66 -351 76 l-67 7 4 31 c3 17 8 58 12 91 8 75 50 243 65 261 15 18
-10 58 -49 78 -70 36 -278 48 -372 22z m401 -936 c177 -55 270 -223 185 -335
-44 -57 -97 -79 -191 -80 -44 0 -98 6 -120 12 -69 21 -147 75 -184 128 -32 44
-36 56 -36 115 0 53 5 71 24 99 55 76 191 102 322 61z m-905 -391 c112 -53
149 -153 96 -256 -48 -92 -143 -138 -287 -138 -133 0 -216 42 -256 130 -35 76
-16 151 56 213 48 43 86 61 159 77 82 18 158 10 232 -26z m1777 -137 c132 -65
202 -183 166 -279 -56 -150 -323 -166 -463 -28 -45 45 -86 126 -86 173 0 108
97 175 242 169 61 -3 89 -10 141 -35z m-952 -577 c37 -20 69 -70 69 -110 -1
-46 -32 -106 -80 -148 -98 -89 -224 -97 -277 -18 -39 57 -24 129 40 199 74 79
179 112 248 77z m-961 -84 c93 -68 6 -265 -135 -306 -73 -22 -119 -13 -162 30
-27 27 -33 41 -33 74 0 91 82 187 190 222 37 12 111 2 140 -20z m2080 -422
c87 -39 130 -97 130 -179 0 -123 -104 -211 -269 -226 -170 -16 -311 74 -311
198 1 83 63 169 149 206 86 35 221 36 301 1z m-1684 -464 c69 -20 153 -81 192
-140 31 -46 34 -55 30 -110 -6 -95 -57 -147 -167 -167 -106 -20 -240 20 -320
95 -38 37 -81 119 -81 159 0 63 46 127 115 159 50 23 161 25 231 4z m1146 5
c20 -6 49 -25 63 -42 54 -64 17 -181 -79 -247 -89 -61 -183 -65 -239 -10 -27
28 -29 34 -25 89 3 46 11 70 34 103 31 44 118 103 163 110 14 2 31 5 36 5 6 1
27 -3 47 -8z"/>
</g>
</svg>
